<?xml version="1.0" standalone="no"?><!DOCTYPE svg PUBLIC "-//W3C//DTD SVG 1.1//EN" "http://www.w3.org/Graphics/SVG/1.1/DTD/svg11.dtd"><svg t="1660123806694" class="icon" viewBox="0 0 1024 1024" version="1.1" xmlns="http://www.w3.org/2000/svg" p-id="11104" xmlns:xlink="http://www.w3.org/1999/xlink" width="200" height="200"><defs><style type="text/css">@font-face { font-family: feedback-iconfont; src: url("//at.alicdn.com/t/font_1031158_u69w8yhxdu.woff2?t=1630033759944") format("woff2"), url("//at.alicdn.com/t/font_1031158_u69w8yhxdu.woff?t=1630033759944") format("woff"), url("//at.alicdn.com/t/font_1031158_u69w8yhxdu.ttf?t=1630033759944") format("truetype"); }
</style></defs><path d="M224 368c26.496 0 48 21.568 48 48S250.496 464 224 464 176 442.496 176 416 197.504 368 224 368M224 320C170.944 320 128 363.008 128 416S170.944 512 224 512 320 469.056 320 416 277.056 320 224 320L224 320zM480 112c26.496 0 48 21.568 48 48S506.496 208 480 208 432 186.496 432 160 453.504 112 480 112M480 64C426.944 64 384 107.008 384 160S426.944 256 480 256 576 213.056 576 160 533.056 64 480 64L480 64zM928 240c26.496 0 48 21.568 48 48s-21.504 48-48 48-48-21.568-48-48S901.504 240 928 240M928 192C875.008 192 832 235.008 832 288S875.008 384 928 384 1024 341.056 1024 288 980.992 192 928 192L928 192zM608 368c26.496 0 48 21.568 48 48S634.496 464 608 464 560 442.496 560 416 581.504 368 608 368M608 320C554.944 320 512 363.008 512 416S554.944 512 608 512C660.992 512 704 469.056 704 416S660.992 320 608 320L608 320zM480 688c26.496 0 48 21.632 48 48 0 26.496-21.504 48-48 48s-48-21.504-48-48C432 709.632 453.504 688 480 688M480 640C426.944 640 384 683.008 384 736S426.944 832 480 832 576 788.992 576 736 533.056 640 480 640L480 640zM160 752c26.496 0 48 21.632 48 48 0 26.496-21.504 48-48 48s-48-21.504-48-48C112 773.632 133.504 752 160 752M160 704C106.944 704 64 747.008 64 800S106.944 896 160 896 256 852.992 256 800 213.056 704 160 704L160 704z" p-id="11105" fill="#ffffff"></path></svg>