<?xml version="1.0" encoding="utf-8"?>
<!-- Generator: Adobe Illustrator 22.1.0, SVG Export Plug-In . SVG Version: 6.00 Build 0)  -->
<svg version="1.1" id="Logo" xmlns="http://www.w3.org/2000/svg" xmlns:xlink="http://www.w3.org/1999/xlink" x="0px" y="0px"
	 viewBox="0 0 200 200" style="enable-background:new 0 0 200 200;" xml:space="preserve">
<style type="text/css">
	.st0{fill:#FFFFFF;}
</style>
<g>
	<path class="st0" d="M175.6,169.8l-10.4-59.7h3.5c2.8,0,5.1-2.3,5.1-5.1V67.6c0-2.8-2.3-5.1-5.1-5.1h-48V27c0-2.8-2.3-5.1-5.1-5.1
		H84.4c-2.8,0-5.1,2.3-5.1,5.1v35.5h-48c-2.8,0-5.1,2.3-5.1,5.1v37.5c0,2.8,2.3,5.1,5.1,5.1h3.5l-10.4,59.7
		c-0.1,0.3-0.1,0.6-0.1,0.9c0,2.8,2.3,5.1,5.1,5.1h141.2c0.3,0,0.6,0,0.9-0.1C174.2,175.2,176.1,172.6,175.6,169.8L175.6,169.8z
		 M39.8,76.2H93V35.5H107v40.6h53.1v20.3H39.8V76.2z M131.3,162.1v-30.5c0-0.9-0.7-1.6-1.6-1.6h-9.4c-0.9,0-1.6,0.7-1.6,1.6v30.5
		H81.3v-30.5c0-0.9-0.7-1.6-1.6-1.6h-9.4c-0.9,0-1.6,0.7-1.6,1.6v30.5H39.6l8.8-50.8h103.1l8.8,50.8H131.3z"/>
</g>
</svg>
