<?xml version="1.0" standalone="no"?><!DOCTYPE svg PUBLIC "-//W3C//DTD SVG 1.1//EN" "http://www.w3.org/Graphics/SVG/1.1/DTD/svg11.dtd"><svg t="1660035653400" class="icon" viewBox="0 0 1024 1024" version="1.1" xmlns="http://www.w3.org/2000/svg" p-id="7279" xmlns:xlink="http://www.w3.org/1999/xlink" width="200" height="200"><defs><style type="text/css">@font-face { font-family: feedback-iconfont; src: url("//at.alicdn.com/t/font_1031158_u69w8yhxdu.woff2?t=1630033759944") format("woff2"), url("//at.alicdn.com/t/font_1031158_u69w8yhxdu.woff?t=1630033759944") format("woff"), url("//at.alicdn.com/t/font_1031158_u69w8yhxdu.ttf?t=1630033759944") format("truetype"); }
</style></defs><path d="M179.2 887.466667c-12.8 0-21.333333-4.266667-29.866667-12.8-17.066667-17.066667-17.066667-42.666667 0-59.733333l243.2-243.2c17.066667-17.066667 42.666667-17.066667 59.733333 0s17.066667 42.666667 0 59.733333l-243.2 243.2C200.533333 883.2 192 887.466667 179.2 887.466667z" p-id="7280" fill="#ffffff"></path><path d="M601.6 465.066667c-12.8 0-21.333333-4.266667-29.866667-12.8-17.066667-17.066667-17.066667-42.666667 0-59.733333l243.2-243.2c17.066667-17.066667 42.666667-17.066667 59.733333 0s17.066667 42.666667 0 59.733333l-243.2 243.2C622.933333 460.8 614.4 465.066667 601.6 465.066667z" p-id="7281" fill="#ffffff"></path><path d="M635.733333 524.8c-17.066667 0-38.4-12.8-42.666667-34.133333-4.266667-21.333333 8.533333-46.933333 29.866667-51.2l332.8-81.066667c21.333333-4.266667 46.933333 8.533333 51.2 29.866667 4.266667 21.333333-8.533333 46.933333-29.866667 51.2l-332.8 81.066667C644.266667 524.8 640 524.8 635.733333 524.8z" p-id="7282" fill="#ffffff"></path><path d="M477.866667 1024C473.6 1024 473.6 1024 477.866667 1024c-25.6 0-42.666667-21.333333-42.666667-46.933333l25.6-341.333333c0-21.333333 21.333333-42.666667 46.933333-38.4 25.6 0 42.666667 21.333333 38.4 46.933333l-25.6 341.333333C516.266667 1006.933333 499.2 1024 477.866667 1024z" p-id="7283" fill="#ffffff"></path><path d="M409.6 477.866667c-8.533333 0-17.066667-4.266667-25.6-8.533333L106.666667 268.8C89.6 256 85.333333 230.4 98.133333 209.066667s42.666667-21.333333 59.733333-8.533333l277.333333 200.533333c17.066667 12.8 21.333333 42.666667 8.533333 59.733333C435.2 473.6 422.4 477.866667 409.6 477.866667z" p-id="7284" fill="#ffffff"></path><path d="M512 1024C230.4 1024 0 793.6 0 512S230.4 0 512 0s512 230.4 512 512S793.6 1024 512 1024zM512 85.333333C277.333333 85.333333 85.333333 277.333333 85.333333 512s192 426.666667 426.666667 426.666667 426.666667-192 426.666667-426.666667S746.666667 85.333333 512 85.333333z" p-id="7285" fill="#ffffff"></path><path d="M512 682.666667c-93.866667 0-170.666667-76.8-170.666667-170.666667s76.8-170.666667 170.666667-170.666667 170.666667 76.8 170.666667 170.666667S605.866667 682.666667 512 682.666667zM512 426.666667c-46.933333 0-85.333333 38.4-85.333333 85.333333s38.4 85.333333 85.333333 85.333333 85.333333-38.4 85.333333-85.333333S558.933333 426.666667 512 426.666667z" p-id="7286" fill="#ffffff"></path></svg>