<?xml version="1.0" standalone="no"?><!DOCTYPE svg PUBLIC "-//W3C//DTD SVG 1.1//EN" "http://www.w3.org/Graphics/SVG/1.1/DTD/svg11.dtd"><svg t="1660035418129" class="icon" viewBox="0 0 1024 1024" version="1.1" xmlns="http://www.w3.org/2000/svg" p-id="3128" xmlns:xlink="http://www.w3.org/1999/xlink" width="200" height="200"><defs><style type="text/css">@font-face { font-family: feedback-iconfont; src: url("//at.alicdn.com/t/font_1031158_u69w8yhxdu.woff2?t=1630033759944") format("woff2"), url("//at.alicdn.com/t/font_1031158_u69w8yhxdu.woff?t=1630033759944") format("woff"), url("//at.alicdn.com/t/font_1031158_u69w8yhxdu.ttf?t=1630033759944") format("truetype"); }
</style></defs><path d="M131.84 698.221714h189.44v186.002286c0 20.992 12.434286 33.846857 32.585143 33.846857 19.712 0 32.128-12.854857 32.128-33.865143V698.221714H635.428571v186.002286c0 20.992 12.434286 33.846857 32.566858 33.846857 19.712 0 32.146286-12.854857 32.146285-33.865143V698.221714h192.420572c21.010286 0 33.865143-12.434286 33.865143-32.585143 0-20.132571-12.854857-32.146286-33.865143-32.146285H700.16V392.228571h192.420571c21.010286 0 33.865143-12.434286 33.865143-32.146285 0-20.132571-12.854857-32.548571-33.865143-32.548572H700.16V140.196571c0-21.010286-12.434286-34.285714-32.146286-34.285714-20.132571 0-32.566857 13.275429-32.566857 34.285714V327.497143H386.011429V140.214857c0-21.010286-12.434286-34.285714-32.146286-34.285714-20.150857 0-32.585143 13.275429-32.585143 34.285714V327.497143H131.84c-21.412571 0-34.267429 12.434286-34.267429 32.566857 0 19.730286 12.854857 32.146286 34.285715 32.146286h189.44v241.28H131.84c-21.430857 0-34.285714 12.013714-34.285714 32.146285 0 20.150857 12.854857 32.585143 34.285714 32.585143z m254.171429-64.731428V392.228571h249.417142v241.28z" p-id="3129" fill="#ffffff"></path></svg>