<?xml version="1.0" standalone="no"?><!DOCTYPE svg PUBLIC "-//W3C//DTD SVG 1.1//EN" "http://www.w3.org/Graphics/SVG/1.1/DTD/svg11.dtd"><svg t="1660034701484" class="icon" viewBox="0 0 1024 1024" version="1.1" xmlns="http://www.w3.org/2000/svg" p-id="1970" xmlns:xlink="http://www.w3.org/1999/xlink" width="200" height="200"><defs><style type="text/css">@font-face { font-family: feedback-iconfont; src: url("//at.alicdn.com/t/font_1031158_u69w8yhxdu.woff2?t=1630033759944") format("woff2"), url("//at.alicdn.com/t/font_1031158_u69w8yhxdu.woff?t=1630033759944") format("woff"), url("//at.alicdn.com/t/font_1031158_u69w8yhxdu.ttf?t=1630033759944") format("truetype"); }
</style></defs><path d="M187.733333 1024c-3.413333 0-6.826667 0-10.24-3.413333-6.826667-6.826667-6.826667-17.066667 0-23.893334 105.813333-126.293333 58.026667-225.28 0-283.306666-6.826667-6.826667-6.826667-17.066667 0-23.893334s17.066667-6.826667 23.893334 0c95.573333 95.573333 98.986667 218.453333 3.413333 331.093334-6.826667 0-10.24 3.413333-17.066667 3.413333zM802.133333 887.466667c-6.826667 0-13.653333-3.413333-17.066666-10.24l-170.666667-409.6c-3.413333-6.826667 0-13.653333 3.413333-20.48 6.826667-3.413333 13.653333-6.826667 20.48-3.413334l375.466667 204.8c6.826667 3.413333 10.24 10.24 10.24 13.653334 0 6.826667-3.413333 13.653333-10.24 13.653333l-133.12 64.853333-64.853333 133.12c0 10.24-6.826667 13.653333-13.653334 13.653334z m-136.533333-389.12l136.533333 331.093333 51.2-102.4c0-3.413333 3.413333-6.826667 6.826667-6.826667l105.813333-54.613333-300.373333-167.253333z" fill="#FFFFFF" p-id="1971"></path><path d="M512 682.666667c-88.746667 0-180.906667-17.066667-266.24-51.2-3.413333-3.413333-10.24-6.826667-10.24-10.24-6.826667-27.306667-37.546667-47.786667-68.266667-34.133334-3.413333 3.413333-10.24 0-17.066666 0C54.613333 518.826667 0 433.493333 0 341.333333 0 153.6 228.693333 0 512 0s512 153.6 512 341.333333c0 98.986667-58.026667 191.146667-160.426667 252.586667-6.826667 3.413333-10.24 3.413333-17.066666 0l-180.906667-95.573333 51.2 126.293333c3.413333 3.413333 0 10.24 0 13.653333l-10.24 10.24-17.066667 3.413334c-54.613333 13.653333-116.053333 30.72-177.493333 30.72z m-245.76-81.92c78.506667 30.72 163.84 47.786667 245.76 47.786666 54.613333 0 112.64-13.653333 163.84-27.306666L614.4 467.626667c-3.413333-6.826667 0-13.653333 3.413333-20.48 6.826667-3.413333 13.653333-6.826667 20.48-3.413334l211.626667 116.053334c88.746667-54.613333 136.533333-136.533333 136.533333-218.453334 0-170.666667-215.04-307.2-477.866666-307.2S34.133333 170.666667 34.133333 341.333333c0 78.506667 47.786667 150.186667 133.12 208.213334 40.96-13.653333 85.333333 13.653333 98.986667 51.2z" fill="#FFFFFF" p-id="1972"></path><path d="M187.733333 716.8C139.946667 716.8 102.4 679.253333 102.4 631.466667S139.946667 546.133333 187.733333 546.133333 273.066667 583.68 273.066667 631.466667 235.52 716.8 187.733333 716.8z m0-136.533333c-27.306667 0-51.2 23.893333-51.2 51.2S160.426667 682.666667 187.733333 682.666667 238.933333 658.773333 238.933333 631.466667 215.04 580.266667 187.733333 580.266667z" fill="#FFFFFF" p-id="1973"></path></svg>