<?xml version="1.0" encoding="utf-8"?>
<!-- Generator: Adobe Illustrator 22.1.0, SVG Export Plug-In . SVG Version: 6.00 Build 0)  -->
<svg version="1.1" id="_x31_" xmlns="http://www.w3.org/2000/svg" xmlns:xlink="http://www.w3.org/1999/xlink" x="0px" y="0px"
	 viewBox="0 0 200 200" style="enable-background:new 0 0 200 200;" xml:space="preserve">
<style type="text/css">
	.st0{fill:#FFFFFF;}
</style>
<path class="st0" d="M16.7,183.3H200V200H0v-16.7h0V0h16.7V183.3z M75,100c-13.8,0-25-11.2-25-25s11.2-25,25-25s25,11.2,25,25
	S88.8,100,75,100z M133.4,158.3c-13.8,0-25-11.2-25-25s11.2-25,25-25s25,11.2,25,25S147.2,158.3,133.4,158.3z M54.2,158.3
	c-6.9,0-12.5-5.6-12.5-12.5s5.6-12.5,12.5-12.5s12.5,5.6,12.5,12.5S61.1,158.3,54.2,158.3z M137.5,91.7c-6.9,0-12.5-5.6-12.5-12.5
	s5.6-12.5,12.5-12.5S150,72.3,150,79.2S144.4,91.7,137.5,91.7z M179.2,75c-6.9,0-12.5-5.6-12.5-12.5S172.3,50,179.2,50
	s12.5,5.6,12.5,12.5S186.1,75,179.2,75z M145.9,33.3c-6.9,0-12.5-5.6-12.5-12.5S139,8.3,145.9,8.3s12.5,5.6,12.5,12.5
	S152.8,33.3,145.9,33.3z"/>
</svg>
