<?xml version="1.0" standalone="no"?><!DOCTYPE svg PUBLIC "-//W3C//DTD SVG 1.1//EN" "http://www.w3.org/Graphics/SVG/1.1/DTD/svg11.dtd"><svg t="1660122688404" class="icon" viewBox="0 0 1024 1024" version="1.1" xmlns="http://www.w3.org/2000/svg" p-id="2295" xmlns:xlink="http://www.w3.org/1999/xlink" width="200" height="200"><defs><style type="text/css">@font-face { font-family: feedback-iconfont; src: url("//at.alicdn.com/t/font_1031158_u69w8yhxdu.woff2?t=1630033759944") format("woff2"), url("//at.alicdn.com/t/font_1031158_u69w8yhxdu.woff?t=1630033759944") format("woff"), url("//at.alicdn.com/t/font_1031158_u69w8yhxdu.ttf?t=1630033759944") format("truetype"); }
</style></defs><path d="M597.333333 426.666667h-170.666666v170.666666h170.666666v-170.666666z m0-85.333334V149.333333h-170.666666v192h170.666666zM149.333333 426.666667v170.666666h192v-170.666666H149.333333z m0-85.333334h192V149.333333H149.333333v192z m725.333334 85.333334h-192v170.666666h192v-170.666666z m0-85.333334V149.333333h-192v192h192zM597.333333 682.666667h-170.666666v192h170.666666v-192zM149.333333 682.666667v192h192v-192H149.333333z m725.333334 0h-192v192h192v-192z m85.333333-618.666667v896H64V64h896z" p-id="2296" fill="#ffffff"></path></svg>