<?xml version="1.0" standalone="no"?><!DOCTYPE svg PUBLIC "-//W3C//DTD SVG 1.1//EN" "http://www.w3.org/Graphics/SVG/1.1/DTD/svg11.dtd"><svg t="1660035305133" class="icon" viewBox="0 0 1024 1024" version="1.1" xmlns="http://www.w3.org/2000/svg" p-id="2182" xmlns:xlink="http://www.w3.org/1999/xlink" width="200" height="200"><defs><style type="text/css">@font-face { font-family: feedback-iconfont; src: url("//at.alicdn.com/t/font_1031158_u69w8yhxdu.woff2?t=1630033759944") format("woff2"), url("//at.alicdn.com/t/font_1031158_u69w8yhxdu.woff?t=1630033759944") format("woff"), url("//at.alicdn.com/t/font_1031158_u69w8yhxdu.ttf?t=1630033759944") format("truetype"); }
</style></defs><path d="M512 85.333333C276.906667 85.333333 85.333333 256 85.333333 469.333333a372.48 372.48 0 0 0 170.666667 305.92A85.333333 85.333333 0 0 1 170.666667 853.333333H106.666667a21.333333 21.333333 0 0 0-21.333334 21.333334v42.666666a21.333333 21.333333 0 0 0 21.333334 21.333334H170.666667a170.666667 170.666667 0 0 0 145.92-85.333334 168.106667 168.106667 0 0 0 223.146666 0c222.293333-13.226667 398.933333-179.626667 398.933334-384 0-213.333333-191.573333-384-426.666667-384z m-11.946667 682.666667H469.333333a42.666667 42.666667 0 0 0-42.666666 42.666667 85.333333 85.333333 0 1 1 73.386666-42.666667z m93.866667-9.386667a170.666667 170.666667 0 0 0-329.386667-85.333333A279.04 279.04 0 0 1 170.666667 469.333333c0-164.693333 153.173333-298.666667 341.333333-298.666666s341.333333 133.973333 341.333333 298.666666c0 139.946667-110.506667 256-259.413333 289.28z" p-id="2183" fill="#ffffff"></path></svg>