<?xml version="1.0" encoding="utf-8"?>
<!-- Generator: Adobe Illustrator 22.1.0, SVG Export Plug-In . SVG Version: 6.00 Build 0)  -->
<svg version="1.1" id="_x31_" xmlns="http://www.w3.org/2000/svg" xmlns:xlink="http://www.w3.org/1999/xlink" x="0px" y="0px"
	 viewBox="0 0 200 200" style="enable-background:new 0 0 200 200;" xml:space="preserve">
<style type="text/css">
	.st0{fill:#FFFFFF;}
</style>
<g>
	<path class="st0" d="M0,14.4C0,6.7,6.7,0,14.4,0h58.9c8.9,0,15.6,6.7,15.6,14.4v58.9c0,8.9-6.7,15.6-14.4,15.6h-60
		C6.7,88.9,0,82.2,0,74.4V14.4z"/>
	<g>
		<path class="st0" d="M185.1,9c3.2,0,5.9,2.6,5.9,5.9V74c0,3.2-2.6,5.9-5.9,5.9H126c-3.2,0-5.9-2.6-5.9-5.9V14.9
			c0-3.2,2.6-5.9,5.9-5.9H185.1 M185.1,0H126c-8.2,0-14.9,6.7-14.9,14.9V74c0,8.2,6.7,14.9,14.9,14.9h59.2c8.2,0,14.9-6.7,14.9-14.9
			V14.9C200,6.7,193.3,0,185.1,0L185.1,0z"/>
	</g>
	<g>
		<path class="st0" d="M185.1,120.1c3.2,0,5.9,2.6,5.9,5.9v59.2c0,3.2-2.6,5.9-5.9,5.9H126c-3.2,0-5.9-2.6-5.9-5.9V126
			c0-3.2,2.6-5.9,5.9-5.9H185.1 M185.1,111.1H126c-8.2,0-14.9,6.7-14.9,14.9v59.2c0,8.2,6.7,14.9,14.9,14.9h59.2
			c8.2,0,14.9-6.7,14.9-14.9V126C200,117.8,193.3,111.1,185.1,111.1L185.1,111.1z"/>
	</g>
	<g>
		<path class="st0" d="M74,120.1c3.2,0,5.9,2.6,5.9,5.9v59.2c0,3.2-2.6,5.9-5.9,5.9H14.9c-3.2,0-5.9-2.6-5.9-5.9V126
			c0-3.2,2.6-5.9,5.9-5.9H74 M74,111.1H14.9C6.7,111.1,0,117.8,0,126v59.2c0,8.2,6.7,14.9,14.9,14.9H74c8.2,0,14.9-6.7,14.9-14.9
			V126C88.9,117.8,82.2,111.1,74,111.1L74,111.1z"/>
	</g>
</g>
</svg>
