<?xml version="1.0" encoding="utf-8"?>
<!-- Generator: Adobe Illustrator 22.1.0, SVG Export Plug-In . SVG Version: 6.00 Build 0)  -->
<svg version="1.1" id="_x31_" xmlns="http://www.w3.org/2000/svg" xmlns:xlink="http://www.w3.org/1999/xlink" x="0px" y="0px"
	 viewBox="0 0 200 200" style="enable-background:new 0 0 200 200;" xml:space="preserve">
<style type="text/css">
	.st0{fill:#FFFFFF;}
</style>
<g>
	<path class="st0" d="M0,14.4C0,6.7,6.7,0,14.4,0h58.9c8.9,0,15.6,6.7,15.6,14.4v58.9c0,8.9-6.7,15.6-14.4,15.6h-60
		C6.7,88.9,0,82.2,0,74.4V14.4z"/>
	<path class="st0" d="M111.1,14.4c0-7.7,6.7-14.4,14.4-14.4h58.9c8.9,0,15.6,6.7,15.6,14.4v58.9c0,8.9-6.7,15.6-14.4,15.6h-60
		c-7.8,0-14.5-6.7-14.5-14.5V14.4z"/>
	<path class="st0" d="M0,125.5c0-7.7,6.7-14.4,14.4-14.4h58.9c8.9,0,15.6,6.7,15.6,14.4v58.9c0,8.9-6.7,15.6-14.4,15.6h-60
		C6.7,200,0,193.3,0,185.5V125.5z"/>
	<path class="st0" d="M111.1,125.5c0-7.7,6.7-14.4,14.4-14.4h58.9c8.9,0,15.6,6.7,15.6,14.4v58.9c0,8.9-6.7,15.6-14.4,15.6h-60
		c-7.8,0-14.5-6.7-14.5-14.5V125.5z"/>
</g>
</svg>
